<?xml version="1.0" standalone="no"?>
<!DOCTYPE svg PUBLIC "-//W3C//DTD SVG 20010904//EN"
 "http://www.w3.org/TR/2001/REC-SVG-20010904/DTD/svg10.dtd">
<svg version="1.0" xmlns="http://www.w3.org/2000/svg"
 width="300.000000pt" height="83.000000pt" viewBox="0 0 300.000000 83.000000"
 preserveAspectRatio="xMidYMid meet">
<metadata>
Created by potrace 1.10, written by Peter Selinger 2001-2011
</metadata>
<g transform="translate(0.000000,83.000000) scale(0.100000,-0.100000)"
fill="#000000" stroke="none">
<path d="M2720 805 c-15 -17 -5 -35 20 -35 22 0 33 23 17 39 -15 15 -22 14
-37 -4z m30 -10 c0 -8 -4 -15 -9 -15 -13 0 -22 16 -14 24 11 11 23 6 23 -9z"/>
<path d="M770 628 c0 -9 -6 -19 -12 -21 -10 -4 -10 -6 0 -6 14 -1 28 26 18 36
-3 4 -6 -1 -6 -9z"/>
<path d="M396 535 c-21 -22 -16 -39 12 -43 28 -4 40 24 20 44 -13 14 -17 14
-32 -1z m32 -17 c-6 -18 -28 -21 -28 -4 0 9 7 16 16 16 9 0 14 -5 12 -12z"/>
<path d="M2774 526 c-10 -26 4 -48 28 -44 17 2 23 10 23 28 0 18 -6 26 -23 28
-13 2 -25 -3 -28 -12z m44 -18 c-3 -7 -11 -13 -18 -13 -7 0 -15 6 -17 13 -3 7
4 12 17 12 13 0 20 -5 18 -12z"/>
<path d="M997 499 c-74 -6 -81 -9 -118 -45 -21 -21 -41 -46 -45 -56 -3 -10
-10 -18 -16 -18 -6 0 -9 3 -6 6 9 8 -12 77 -30 97 -10 11 -30 17 -60 17 -54 0
-93 -24 -137 -84 -25 -33 -36 -40 -58 -38 -31 4 -47 -21 -30 -47 8 -12 3 -25
-23 -57 -33 -39 -43 -77 -26 -88 5 -3 37 -6 70 -7 57 -2 62 -4 62 -25 0 -13 5
-26 10 -29 17 -10 41 16 35 36 -5 15 -1 19 20 19 14 0 35 5 45 10 13 7 21 7
25 0 9 -14 98 -13 113 2 7 7 12 21 13 33 0 11 3 14 6 7 2 -7 24 -21 48 -32 36
-17 64 -19 180 -19 121 1 139 3 156 20 10 10 19 27 19 37 1 10 8 3 18 -18 l17
-35 214 -3 c142 -1 218 1 227 9 9 7 18 7 33 0 33 -18 113 -13 145 9 30 19 30
19 43 -1 11 -15 26 -19 67 -19 29 0 60 6 70 13 18 13 17 16 -5 77 l-23 63 43
38 c40 36 45 38 64 24 12 -8 29 -15 39 -15 28 0 28 -12 2 -86 -13 -38 -22 -79
-19 -91 5 -21 11 -23 78 -23 43 0 78 5 85 12 14 14 16 50 3 64 -6 5 -2 29 12
64 19 48 26 55 59 63 47 11 98 78 78 102 -17 21 -255 22 -295 1 -40 -21 -174
-139 -175 -153 0 -7 11 -38 25 -69 14 -31 25 -58 25 -61 0 -2 -26 -3 -57 -1
-56 3 -58 4 -69 36 l-10 32 -34 -35 c-31 -32 -39 -35 -93 -35 l-60 0 49 43
c27 23 62 54 78 68 l30 27 -27 66 c-15 37 -27 69 -27 72 0 3 26 4 57 2 55 -3
58 -4 66 -35 l10 -32 42 34 c36 30 50 35 94 35 28 0 51 5 51 10 0 6 -26 10
-59 10 -44 0 -65 -5 -84 -20 l-26 -21 -21 21 c-18 18 -32 21 -88 20 -80 -2
-321 -3 -412 -1 -70 1 -92 -9 -105 -49 -8 -24 -8 -24 -24 10 -18 40 -49 50
-120 39 -24 -3 -71 -3 -105 0 -33 3 -96 3 -139 0z m-229 -31 c6 -7 18 -58 27
-113 9 -55 18 -112 21 -127 6 -28 5 -28 -45 -28 -51 0 -51 0 -51 32 l0 33 -22
-32 -23 -33 -114 0 c-89 0 -111 3 -104 13 88 116 191 245 203 254 20 16 95 16
108 1z m412 5 c0 -4 -14 -22 -32 -40 -30 -31 -36 -33 -104 -33 -53 0 -77 -4
-88 -16 -38 -38 -11 -114 41 -114 12 0 23 2 23 4 0 2 3 11 6 20 5 13 1 15 -25
10 -38 -8 -39 4 -3 38 22 21 39 27 90 30 34 1 61 1 60 -2 -2 -3 -16 -43 -32
-88 l-29 -82 -61 0 c-83 0 -130 15 -160 51 -54 64 -18 176 69 215 31 14 245
20 245 7z m170 -65 c6 -40 13 -77 14 -83 2 -5 11 15 20 45 36 114 33 110 88
110 44 0 49 -2 43 -17 -4 -10 -26 -72 -49 -138 l-43 -120 -65 -3 -66 -3 -8 58
c-4 32 -7 66 -6 76 1 9 -2 17 -6 17 -5 0 -19 -34 -32 -75 l-24 -75 -52 0 -52
0 35 93 c19 50 42 113 50 140 l16 47 63 0 62 0 12 -72z m490 65 c0 -4 -14 -22
-32 -40 -31 -32 -35 -33 -110 -33 l-78 0 -14 -32 c-16 -40 -12 -48 11 -20 14
15 33 21 81 24 34 2 62 3 62 1 0 -2 -16 -18 -37 -36 -29 -25 -47 -33 -91 -37
-34 -3 -57 -10 -60 -18 -3 -11 15 -13 97 -10 55 1 101 1 101 -2 0 -2 -14 -19
-32 -37 l-32 -33 -128 0 c-76 0 -128 4 -128 10 0 5 6 24 14 42 8 18 27 67 41
108 48 135 24 120 190 120 80 0 145 -3 145 -7z m650 0 c0 -5 -14 -23 -31 -41
-25 -27 -38 -33 -60 -30 -28 4 -29 2 -66 -99 l-38 -103 -51 0 -52 0 39 100
c21 56 39 102 39 104 0 2 -24 1 -52 -2 -48 -5 -52 -3 -40 11 8 9 10 22 6 28
-4 7 -3 9 3 6 6 -4 18 2 28 13 16 18 31 20 147 20 70 0 128 -3 128 -7z m-621
-84 c14 -43 9 -56 -35 -93 l-35 -29 -34 19 c-19 10 -35 21 -35 25 0 3 11 16
25 29 14 13 25 29 25 37 0 7 6 13 13 13 6 1 21 12 32 25 23 27 28 24 44 -26z
m-1336 -25 c9 -10 -4 -34 -19 -34 -8 0 -14 9 -14 20 0 19 19 27 33 14z m1817
-138 c0 -8 -5 -18 -11 -22 -14 -8 -33 11 -25 25 10 16 36 13 36 -3z m-1740
-76 c0 -5 -4 -10 -10 -10 -5 0 -10 5 -10 10 0 6 5 10 10 10 6 0 10 -4 10 -10z"/>
<path d="M653 328 l-43 -58 55 0 c52 0 55 1 50 23 -3 12 -8 38 -13 58 l-7 35
-42 -58z"/>
<path d="M170 455 c-26 -31 13 -82 44 -56 19 16 21 42 4 59 -16 16 -33 15 -48
-3z m44 -12 c4 -9 1 -23 -7 -30 -12 -12 -16 -12 -27 1 -10 13 -10 19 0 31 16
19 26 19 34 -2z"/>
<path d="M303 224 c-3 -8 -1 -20 4 -25 12 -12 48 14 39 29 -10 17 -36 15 -43
-4z m27 -4 c0 -5 -4 -10 -10 -10 -5 0 -10 5 -10 10 0 6 5 10 10 10 6 0 10 -4
10 -10z"/>
</g>
</svg>
